<?xml version="1.0" encoding="UTF-8"?>
<svg id="Layer_1" data-name="Layer 1" xmlns="http://www.w3.org/2000/svg" xmlns:xlink="http://www.w3.org/1999/xlink" viewBox="0 0 139.97 104.1">
  <defs>
    <style>
      .cls-1 {
        fill: url(#linear-gradient-2);
      }

      .cls-2 {
        fill: url(#linear-gradient-17);
      }

      .cls-3 {
        fill: url(#linear-gradient-15);
      }

      .cls-4 {
        fill: url(#linear-gradient-18);
      }

      .cls-5 {
        fill: url(#linear-gradient-28);
      }

      .cls-6 {
        fill: url(#linear-gradient-14);
      }

      .cls-7 {
        fill: url(#linear-gradient-20);
      }

      .cls-8 {
        fill: url(#linear-gradient-6);
      }

      .cls-9 {
        fill: url(#linear-gradient-11);
      }

      .cls-10 {
        fill: url(#linear-gradient-10);
      }

      .cls-11 {
        fill: url(#linear-gradient-16);
      }

      .cls-12 {
        fill: url(#linear-gradient-21);
      }

      .cls-13 {
        fill: url(#linear-gradient-25);
      }

      .cls-14 {
        fill: url(#linear-gradient-5);
      }

      .cls-15 {
        fill: none;
      }

      .cls-16 {
        fill: url(#linear-gradient-7);
      }

      .cls-17 {
        fill: url(#linear-gradient-24);
      }

      .cls-18 {
        fill: url(#linear-gradient-9);
      }

      .cls-19 {
        fill: url(#linear-gradient-22);
      }

      .cls-20 {
        fill: url(#linear-gradient-3);
      }

      .cls-21 {
        fill: url(#linear-gradient);
      }

      .cls-22 {
        fill: url(#linear-gradient-27);
      }

      .cls-23 {
        fill: url(#linear-gradient-29);
      }

      .cls-24 {
        fill: url(#linear-gradient-30);
      }

      .cls-25 {
        fill: url(#linear-gradient-23);
      }

      .cls-26 {
        fill: url(#linear-gradient-19);
      }

      .cls-27 {
        fill: url(#linear-gradient-4);
      }

      .cls-28 {
        fill: #51b95d;
      }

      .cls-29 {
        fill: url(#linear-gradient-8);
      }

      .cls-30 {
        fill: url(#linear-gradient-12);
      }

      .cls-31 {
        fill: url(#linear-gradient-13);
      }

      .cls-32 {
        fill: #231f20;
        font-family: Poppins-SemiBold, Poppins;
        font-size: 11px;
        font-weight: 600;
        letter-spacing: -.01em;
      }

      .cls-33 {
        fill: url(#linear-gradient-26);
      }
    </style>
    <linearGradient id="linear-gradient" x1="304" y1="-200.85" x2="348.65" y2="-200.85" gradientTransform="translate(-304 -137.24) scale(1 -1)" gradientUnits="userSpaceOnUse">
      <stop offset="0" stop-color="#66be6a"/>
      <stop offset="1" stop-color="#28b24b"/>
    </linearGradient>
    <linearGradient id="linear-gradient-2" x1="304" y1="-201.99" x2="348.65" y2="-201.99" xlink:href="#linear-gradient"/>
    <linearGradient id="linear-gradient-3" x1="318.62" y1="-206.67" x2="326.05" y2="-206.67" xlink:href="#linear-gradient"/>
    <linearGradient id="linear-gradient-4" x1="316.74" y1="-197.81" x2="329.15" y2="-197.81" xlink:href="#linear-gradient"/>
    <linearGradient id="linear-gradient-5" x1="304" y1="-199.11" x2="348.65" y2="-199.11" xlink:href="#linear-gradient"/>
    <linearGradient id="linear-gradient-6" x1="331.34" y1="-199.11" x2="343.03" y2="-199.11" xlink:href="#linear-gradient"/>
    <linearGradient id="linear-gradient-7" x1="331.34" y1="-208.3" x2="343.03" y2="-208.3" xlink:href="#linear-gradient"/>
    <linearGradient id="linear-gradient-8" x1="331.34" y1="-197.13" x2="343.03" y2="-197.13" xlink:href="#linear-gradient"/>
    <linearGradient id="linear-gradient-9" x1="311.7" y1="-227.08" x2="335.83" y2="-227.08" xlink:href="#linear-gradient"/>
    <linearGradient id="linear-gradient-10" x1="304" y1="-210.91" x2="348.65" y2="-210.91" xlink:href="#linear-gradient"/>
    <linearGradient id="linear-gradient-11" x1="311.7" y1="-210.91" x2="335.83" y2="-210.91" xlink:href="#linear-gradient"/>
    <linearGradient id="linear-gradient-12" x1="304" y1="-210.94" x2="348.65" y2="-210.94" xlink:href="#linear-gradient"/>
    <linearGradient id="linear-gradient-13" x1="311.7" y1="-210.94" x2="335.83" y2="-210.94" xlink:href="#linear-gradient"/>
    <linearGradient id="linear-gradient-14" x1="304" y1="-210.92" x2="348.65" y2="-210.92" xlink:href="#linear-gradient"/>
    <linearGradient id="linear-gradient-15" x1="311.7" y1="-210.92" x2="335.83" y2="-210.92" xlink:href="#linear-gradient"/>
    <linearGradient id="linear-gradient-16" x1="304" y1="-210.1" x2="348.65" y2="-210.1" xlink:href="#linear-gradient"/>
    <linearGradient id="linear-gradient-17" x1="311.7" y1="-210.1" x2="335.83" y2="-210.1" xlink:href="#linear-gradient"/>
    <linearGradient id="linear-gradient-18" x1="311.7" y1="-218.04" x2="335.83" y2="-218.04" xlink:href="#linear-gradient"/>
    <linearGradient id="linear-gradient-19" x1="311.7" y1="-210.44" x2="335.83" y2="-210.44" xlink:href="#linear-gradient"/>
    <linearGradient id="linear-gradient-20" x1="318.62" y1="-210.96" x2="326.05" y2="-210.96" xlink:href="#linear-gradient"/>
    <linearGradient id="linear-gradient-21" x1="311.7" y1="-210.96" x2="335.83" y2="-210.96" xlink:href="#linear-gradient"/>
    <linearGradient id="linear-gradient-22" x1="331.34" y1="-210.98" x2="343.03" y2="-210.98" xlink:href="#linear-gradient"/>
    <linearGradient id="linear-gradient-23" x1="311.7" y1="-210.98" x2="335.83" y2="-210.98" xlink:href="#linear-gradient"/>
    <linearGradient id="linear-gradient-24" x1="311.7" y1="-220.19" x2="335.83" y2="-220.19" xlink:href="#linear-gradient"/>
    <linearGradient id="linear-gradient-25" x1="327.83" y1="-220.19" x2="335.93" y2="-220.19" xlink:href="#linear-gradient"/>
    <linearGradient id="linear-gradient-26" x1="319.6" y1="-223.25" x2="321.36" y2="-223.25" xlink:href="#linear-gradient"/>
    <linearGradient id="linear-gradient-27" x1="316.29" y1="-220.39" x2="320.56" y2="-220.39" xlink:href="#linear-gradient"/>
    <linearGradient id="linear-gradient-28" x1="320.04" y1="-221.13" x2="322.15" y2="-221.13" xlink:href="#linear-gradient"/>
    <linearGradient id="linear-gradient-29" x1="319.6" y1="-223.53" x2="322.9" y2="-223.53" xlink:href="#linear-gradient"/>
    <linearGradient id="linear-gradient-30" x1="319.25" y1="-219.34" x2="323.9" y2="-219.34" xlink:href="#linear-gradient"/>
  </defs>
  <path class="cls-21" d="m44.65,65.09c0-12.33-10-22.33-22.32-22.33S0,52.76,0,65.09c0,6.54,2.81,12.42,7.29,16.51v-7.48c0-.51.11-1,.3-1.45-.05.12-.08.25-.08.4,0,.23.07.44.19.61v-.36c0-.51.11-1,.3-1.45-.05.12-.08.25-.08.4h0c.56-1.22,1.77-2.08,3.2-2.15.86-5.45,2.18-10.82,3.96-16.05,4.2,1.43,8.39,2.85,12.58,4.28-1.22,3.58-2.19,7.23-2.9,10.92-.15.74-.28,1.48-.4,2.22-.11.62-.2,1.23-.29,1.85h1.05c.09-.62.18-1.24.28-1.85.12-.73.25-1.46.39-2.19.72-3.76,1.71-7.47,2.94-11.11-3.31-1.12-6.61-2.25-9.92-3.37.28-.57.57-1.13.86-1.69,3.93,2.06,7.85,4.11,11.77,6.16-1.71,3.25-3.19,6.61-4.44,10.04-.27.71-.52,1.43-.76,2.15-.21.62-.4,1.23-.6,1.85h1.08c.19-.62.39-1.24.6-1.85.24-.71.49-1.41.74-2.12,1.25-3.44,2.74-6.8,4.45-10.06-3.09-1.62-6.18-3.24-9.28-4.86.37-.52.74-1.03,1.11-1.54,3.56,2.63,7.12,5.27,10.68,7.91-2.03,2.75-3.9,5.62-5.58,8.59-.39.69-.77,1.38-1.14,2.08-.33.61-.64,1.23-.95,1.85h1.16c.31-.62.62-1.24.95-1.85.36-.68.73-1.36,1.12-2.04,1.65-2.92,3.49-5.74,5.49-8.44-2.81-2.08-5.61-4.15-8.42-6.23.44-.45.89-.9,1.34-1.35,1.85,1.88,3.71,3.76,5.56,5.64-1.73-1.75-3.46-3.51-5.19-5.26.09-.09.18-.18.27-.27,3.11,3.15,6.22,6.3,9.34,9.45-2.31,2.28-4.49,4.7-6.51,7.24.53.21.91.72.91,1.33v12.91c6.7-3.85,11.22-11.08,11.22-19.37h0Z"/>
  <path class="cls-1" d="m36.71,61.18s.04-.05.06-.08c-.17-.13-.35-.25-.52-.38.71.72,1.42,1.44,2.13,2.16-1.9,1.88-3.71,3.85-5.42,5.9,1.71-2.05,3.52-4.02,5.43-5.9-.56-.57-1.12-1.13-1.68-1.7h0Z"/>
  <path class="cls-20" d="m15,70.99c.31-2.87,2.3-5.01,4.46-4.77,1.08.11,1.98.8,2.59,1.81-.57-1.38-1.63-2.35-2.93-2.49-2.15-.23-4.15,1.91-4.46,4.77-.12,1.1.03,2.14.38,3.03h.12c-.19-.72-.25-1.52-.16-2.35h0Z"/>
  <polygon class="cls-27" points="25.15 58.11 15.67 55.07 12.74 66.06 16.09 55.86 25.15 58.11"/>
  <path class="cls-14" d="m36.77,61.1s-.04.05-.06.08c.56.57,1.11,1.13,1.68,1.7-1.9,1.88-3.71,3.85-5.43,5.9-.37.44-.73.89-1.09,1.33h.13c.18,0,.35.04.52.1,2.03-2.53,4.2-4.95,6.51-7.24-3.11-3.15-6.23-6.3-9.34-9.45-.09.09-.18.18-.27.27,1.73,1.76,3.46,3.51,5.19,5.26.55.55,1.09,1.11,1.64,1.66.17.13.35.25.52.38h0Z"/>
  <path class="cls-8" d="m36.77,61.1s-.04.05-.06.08c.56.57,1.11,1.13,1.68,1.7-1.9,1.88-3.71,3.85-5.43,5.9-.37.44-.73.89-1.09,1.33h.13c.18,0,.35.04.52.1,2.03-2.53,4.2-4.95,6.51-7.24-3.11-3.15-6.23-6.3-9.34-9.45-.09.09-.18.18-.27.27,1.73,1.76,3.46,3.51,5.19,5.26.55.55,1.09,1.11,1.64,1.66.17.13.35.25.52.38h0Z"/>
  <path class="cls-16" d="m31.87,70.12c.36-.45.72-.89,1.09-1.33-.76.91-1.49,1.82-2.21,2.76-.45.59-.89,1.19-1.33,1.79h.71c.41-.57.83-1.13,1.25-1.68.37-.48.75-.96,1.13-1.44-.16-.06-.33-.1-.52-.1h-.13Z"/>
  <path class="cls-29" d="m36.26,60.72c-.55-.55-1.09-1.11-1.64-1.66.54.55,1.09,1.11,1.64,1.66h0Z"/>
  <path class="cls-18" d="m30.98,90.87c0,.19-.04.37-.11.53.56-.2.96-.72.96-1.34v-1.79h-.86s0,2.6,0,2.6Z"/>
  <path class="cls-10" d="m25.03,74.01h0c.03-.22.06-.45.09-.67h-1.05c-.03.22-.06.43-.09.65l1.05.02h0Z"/>
  <path class="cls-9" d="m25.03,74.01h0c.03-.22.06-.45.09-.67h-1.05c-.03.22-.06.43-.09.65l1.05.02h0Z"/>
  <path class="cls-30" d="m27.06,74.04l1.14.02h0c.12-.24.24-.49.36-.73h-1.16c-.12.24-.24.47-.35.71h0Z"/>
  <path class="cls-31" d="m27.06,74.04l1.14.02h0c.12-.24.24-.49.36-.73h-1.16c-.12.24-.24.47-.35.71h0Z"/>
  <path class="cls-6" d="m25.46,74.01h0l1.08.02c.07-.23.14-.46.22-.7h-1.08c-.07.23-.14.45-.21.68h0Z"/>
  <path class="cls-3" d="m25.46,74.01h0l1.08.02c.07-.23.14-.46.22-.7h-1.08c-.07.23-.14.45-.21.68h0Z"/>
  <path class="cls-11" d="m7.86,73.85h1.02c-.6,0-1.08-.48-1.08-1.08,0-.14.03-.27.08-.4,0-.01,0-.03.02-.04,0-.02.02-.05.03-.07h0c0-.15.03-.29.08-.41-.19.45-.3.94-.3,1.45v.36c.05.06.1.12.16.18h0Z"/>
  <path class="cls-2" d="m7.86,73.85h1.02c-.6,0-1.08-.48-1.08-1.08,0-.14.03-.27.08-.4,0-.01,0-.03.02-.04,0-.02.02-.05.03-.07h0c0-.15.03-.29.08-.41-.19.45-.3.94-.3,1.45v.36c.05.06.1.12.16.18h0Z"/>
  <path class="cls-4" d="m31.83,74.76c0-.79-.65-1.43-1.46-1.43h-.24c-.19.27-.38.54-.58.81.79,0,1.41.64,1.41,1.42v3.98h.46v6.81h-.46v1.92h.86v-13.51h0Z"/>
  <path class="cls-26" d="m7.88,72.38c-.05.12-.08.25-.08.4,0,.6.48,1.08,1.08,1.08h-1.02c.19.18.45.29.73.29h20.27s.03-.05.03-.07c.17-.24.35-.49.53-.73h-.86c-.12.24-.24.49-.36.73h0l-1.14-.02h0c.11-.24.23-.47.35-.71h-.65c-.07.23-.14.46-.22.7l-1.08-.02h0c.07-.23.14-.45.21-.68h-.54c-.03.22-.06.45-.09.67h0l-1.05-.02c.03-.22.06-.43.09-.65h-8.92c.07.27.15.52.25.76-.14-.24-.26-.49-.37-.76h-6.02c-.6,0-1.09-.48-1.09-1.07,0,.02-.02.04-.03.07,0,.01-.01.03-.02.04Z"/>
  <path class="cls-7" d="m15.41,74.1c-.1-.24-.18-.5-.25-.76h-.12c.11.27.23.53.37.76Z"/>
  <path class="cls-12" d="m15.41,74.1c-.1-.24-.18-.5-.25-.76h-.12c.11.27.23.53.37.76Z"/>
  <path class="cls-19" d="m28.89,74.07s-.03.05-.03.07h.7c.19-.27.38-.54.58-.81h-.71c-.18.24-.35.49-.53.73h0Z"/>
  <path class="cls-25" d="m28.89,74.07s-.03.05-.03.07h.7c.19-.27.38-.54.58-.81h-.71c-.18.24-.35.49-.53.73h0Z"/>
  <rect class="cls-17" x="30.98" y="79.54" width=".46" height="6.81"/>
  <path class="cls-13" d="m27.23,79.54c-1.88,0-3.41,1.52-3.41,3.41h0c0,1.88,1.52,3.41,3.41,3.41h4.2v-6.81h-4.2Z"/>
  <line class="cls-15" x1="16.07" y1="81.08" x2="16.1" y2="83.86"/>
  <path class="cls-33" d="m16.25,85.45c-.05-.02-.1-.02-.15-.02h-.06c-.1.08-.21.14-.33.18-.04.05-.07.11-.09.17-.08.26.06.54.33.62l.61.19c.3-.21.57-.48.79-.8l-1.11-.35Z"/>
  <path class="cls-22" d="m15.95,86.4l.61.19c-.41.28-.86.43-1.35.43-1.62,0-2.93-1.74-2.93-3.88s1.31-3.88,2.93-3.88h.03c.46,0,.9.16,1.29.41-.05.03-.11.06-.16.09-.01,0-.02.01-.04.02v1.33c-.3-.33-.68-.53-1.09-.54h-.03c-1.01,0-1.83,1.14-1.83,2.55s.82,2.55,1.83,2.55c.17,0,.34-.03.5-.1-.04.05-.07.11-.09.17-.08.26.06.54.33.62h0Z"/>
  <path class="cls-5" d="m18.15,83.15c0,1.02-.3,1.95-.79,2.65l-1.11-.35c-.05-.02-.1-.02-.15-.02h-.06s.05-.04.08-.06c.07-.05.13-.11.19-.17.45-.46.73-1.21.73-2.05,0-.14,0-.28-.03-.42-.03-.26-.09-.5-.17-.73.45.13.88.05,1.16-.03.05.22.09.46.11.7.02.16.02.32.02.49h0Z"/>
  <path class="cls-23" d="m18.88,86.8c-.07.22-.27.35-.48.35-.05,0-.1,0-.15-.02l-1.7-.53-.61-.19c-.26-.08-.41-.36-.33-.62.02-.06.05-.12.09-.17.08-.1.2-.16.33-.18h.06c.05,0,.1,0,.15.02l1.11.35,1.2.38c.26.08.41.36.33.62Z"/>
  <path class="cls-24" d="m17.57,78.79h-2.33v6.62c.17,0,.36,0,.55-.02.11,0,.22-.01.32-.02.06,0,.13-.01.19-.02v-.16c0-.81.02-1.62.03-2.42.23-.01.46-.03.68-.04.37-.02.74-.04,1.11-.07.08,0,.16,0,.24-.02.89-.28,1.52-1.01,1.52-1.87,0-1.1-1.04-1.99-2.32-1.99h0Zm.68,3.09c-.05.03-.14.06-.24.09-.28.09-.71.16-1.16.03-.05-.01-.09-.03-.14-.05-.14-.05-.27-.13-.38-.2v-1.96s.02-.02.04-.02c.05-.03.11-.07.16-.09.25-.13.54-.21.86-.21.88,0,1.6.58,1.6,1.3,0,.46-.3.87-.73,1.1Z"/>
  <g>
    <path class="cls-28" d="m59.63,71.15l-2.4-3.23c-.71.14-1.4.21-2.08.21-1.76,0-3.37-.41-4.84-1.23-1.47-.82-2.63-1.96-3.49-3.43-.86-1.47-1.29-3.11-1.29-4.94s.43-3.47,1.29-4.93c.86-1.46,2.03-2.59,3.49-3.41,1.47-.82,3.08-1.23,4.84-1.23s3.37.41,4.84,1.23c1.47.82,2.62,1.96,3.47,3.41.84,1.46,1.27,3.1,1.27,4.93,0,1.6-.32,3.06-.97,4.39-.65,1.32-1.55,2.42-2.71,3.29l4.11,4.93h-5.52Zm-8.09-8.65c.9.99,2.1,1.48,3.61,1.48s2.69-.5,3.59-1.49c.9-1,1.35-2.31,1.35-3.95s-.45-2.97-1.35-3.96c-.9-.99-2.09-1.48-3.59-1.48s-2.72.49-3.61,1.47c-.9.98-1.35,2.3-1.35,3.97s.45,2.97,1.35,3.96Z"/>
    <path class="cls-28" d="m72.4,49.24v11.2c0,1.12.28,1.98.83,2.59.55.6,1.36.91,2.43.91s1.88-.3,2.45-.91c.57-.6.85-1.47.85-2.59v-11.2h4.56v11.17c0,1.67-.36,3.08-1.07,4.24-.71,1.16-1.67,2.03-2.87,2.61-1.2.59-2.54.88-4.01.88s-2.79-.29-3.96-.87c-1.16-.58-2.08-1.45-2.76-2.61-.68-1.16-1.01-2.58-1.01-4.25v-11.17h4.56Z"/>
    <path class="cls-28" d="m91.89,49.24v18.71h-4.56v-18.71h4.56Z"/>
    <path class="cls-28" d="m96.23,53.62c.8-1.45,1.92-2.58,3.35-3.39,1.43-.81,3.05-1.21,4.87-1.21,2.22,0,4.12.59,5.71,1.76,1.58,1.17,2.64,2.77,3.17,4.8h-5.01c-.37-.78-.9-1.38-1.59-1.79-.68-.41-1.46-.61-2.33-.61-1.4,0-2.54.49-3.41,1.47-.87.98-1.31,2.28-1.31,3.92s.43,2.94,1.31,3.92c.87.98,2.01,1.47,3.41,1.47.87,0,1.65-.2,2.33-.61.68-.41,1.21-1,1.59-1.79h5.01c-.53,2.03-1.59,3.62-3.17,4.79-1.58,1.16-3.48,1.75-5.71,1.75-1.81,0-3.43-.4-4.87-1.21-1.43-.81-2.55-1.93-3.35-3.37-.8-1.44-1.2-3.08-1.2-4.93s.4-3.5,1.2-4.94Z"/>
    <path class="cls-28" d="m127.58,67.95l-6.29-8.26v8.26h-4.56v-18.71h4.56v8.21l6.24-8.21h5.36l-7.25,9.17,7.52,9.54h-5.57Z"/>
  </g>
  <text class="cls-32" transform="translate(44.82 79.06)"><tspan x="0" y="0">movers packers</tspan></text>
</svg>